# xmcd
#
# Track frame offsets:
#	150
#	12015
#	26384
#	43923
#	63421
#	79775
#	96466
#	112726
#	125503
#	142885
#	160908
#	177885
#	193758
#	213107
#	230165
#	248207
#	268007
#	284662
#
# Disc length: 4059 seconds
#
# Revision: 0
# Processed by: cddbd v1.5.2PL0 Copyright (c) Steve Scherf et al.
# Submitted via: EZCDAudioConverter 5.3.0.1
#
DISCID=fd0fd912
DTITLE=Nine - Cloud 9 
DYEAR=1996
DGENRE=
TTITLE0=Know Introduction Feat King Just
TTITLE1=Every Man 4 Himself
TTITLE2=We Play 4 Keeps 
TTITLE3=Tha Product Feat U-Neek
TTITLE4=Uncivilized
TTITLE5=No Part A Me
TTITLE6=Lyin' King
TTITLE7=Richman Poorman (Act One) Feat 3rd Eye 
TTITLE8=Jon Doe
TTITLE9=Make Or Take Feat Smoothe Da Hustler 
TTITLE10=Warriors
TTITLE11=4 Chicken Wings And Rice (1991)
TTITLE12=Ova Confident Remix Feat A.R.L. Da X'Rsis
TTITLE13=Industry Party
TTITLE14=The Veteran
TTITLE15=Rah Rah Nigga
TTITLE16=When The Shit Hits The Fan
TTITLE17=Ghetto Near You
EXTD=
EXTT0=
EXTT1=
EXTT2=
EXTT3=
EXTT4=
EXTT5=
EXTT6=
EXTT7=
EXTT8=
EXTT9=
EXTT10=
EXTT11=
EXTT12=
EXTT13=
EXTT14=
EXTT15=
EXTT16=
EXTT17=
PLAYORDER=
